# xmcd
#
# Track frame offsets: 
#        150
#        17190
#        32265
#        54489
#        72609
#        87985
#        106741
#        119064
#        135265
#        157207
#        165970
#        182662
#
# Disc length: 2644 seconds
#
# Revision: 0
# Processed by: cddbd v1.5.2PL0 Copyright (c) Steve Scherf et al.
# Submitted via: ExactAudioCopy v0.95b4
#
DISCID=990a520c
DTITLE=Cowboy - 5'll Getcha Ten
DYEAR=1971
DGENRE=Country
TTITLE0=She Carries A Child
TTITLE1=Hey There Babe
TTITLE2=5'll Getcha Ten
TTITLE3=The Wonder
TTITLE4=Shoestrings
TTITLE5=Lookin' For You
TTITLE6=Seven Four Tune
TTITLE7=Right On Friend
TTITLE8=All My Friends
TTITLE9=Innocence Song
TTITLE10=Please Be With Me
TTITLE11=What I Want Is You
EXTD=
EXTT0=
EXTT1=
EXTT2=
EXTT3=
EXTT4=
EXTT5=
EXTT6=
EXTT7=
EXTT8=
EXTT9=
EXTT10=
EXTT11=
PLAYORDER=
